<svg xmlns="http://www.w3.org/2000/svg" xmlns:xlink="http://www.w3.org/1999/xlink"><defs><symbol viewBox="0 0 24 24" id="add-line"><path fill="none" d="M0 0h24v24H0z"></path><path d="M11 11V5h2v6h6v2h-6v6h-2v-6H5v-2z"></path></symbol><symbol viewBox="0 0 24 24" id="app"><path fill="currentColor" d="M2 2h9v9H2V2zm2 2v5h5V4H4zm13.5 0a2.5 2.5 0 100 5 2.5 2.5 0 000-5zM13 6.5a4.5 4.5 0 119 0 4.5 4.5 0 01-9 0zM2 13h9v9H2v-9zm2 2v5h5v-5H4zm9-2h9v9h-9v-9zm2 2v5h5v-5h-5z"></path></symbol><symbol viewBox="0 0 24 24" id="arrow-down-fill"><path fill="none" d="M0 0h24v24H0z"></path><path d="M13 12h7l-8 8-8-8h7V4h2z"></path></symbol><symbol viewBox="0 0 24 24" id="arrow-drop-down-fill"><path fill="none" d="M0 0h24v24H0z"></path><path d="M12 14l-4-4h8z"></path></symbol><symbol viewBox="0 0 24 24" id="arrow-left-line"><path fill="none" d="M0 0h24v24H0z"></path><path d="M7.828 11H20v2H7.828l5.364 5.364-1.414 1.414L4 12l7.778-7.778 1.414 1.414z"></path></symbol><symbol viewBox="0 0 24 24" id="arrow-right-s-line"><path fill="none" d="M0 0h24v24H0z"></path><path d="M13.172 12l-4.95-4.95 1.414-1.414L16 12l-6.364 6.364-1.414-1.414z"></path></symbol><symbol viewBox="0 0 24 24" id="award-fill"><path fill="none" d="M0 0h24v24H0z"></path><path d="M17 15.245v6.872a.5.5 0 01-.757.429L12 20l-4.243 2.546a.5.5 0 01-.757-.43v-6.87a8 8 0 1110 0zM12 15a6 6 0 100-12 6 6 0 000 12zm0-2a4 4 0 110-8 4 4 0 010 8z"></path></symbol><symbol viewBox="0 0 24 24" id="bank-card-line"><path fill="none" d="M0 0h24v24H0z"></path><path d="M3 3h18a1 1 0 011 1v16a1 1 0 01-1 1H3a1 1 0 01-1-1V4a1 1 0 011-1zm17 8H4v8h16v-8zm0-2V5H4v4h16zm-6 6h4v2h-4v-2z"></path></symbol><symbol viewBox="0 0 24 24" id="bank-line"><path fill="none" d="M0 0h24v24H0z"></path><path d="M2 20h20v2H2v-2zm2-8h2v7H4v-7zm5 0h2v7H9v-7zm4 0h2v7h-2v-7zm5 0h2v7h-2v-7zM2 7l10-5 10 5v4H2V7zm2 1.236V9h16v-.764l-8-4-8 4zM12 8a1 1 0 110-2 1 1 0 010 2z"></path></symbol><symbol viewBox="0 0 24 24" id="check-line"><path fill="none" d="M0 0h24v24H0z"></path><path d="M10 15.172l9.192-9.193 1.415 1.414L10 18l-6.364-6.364 1.414-1.414z"></path></symbol><symbol viewBox="0 0 24 24" id="checkbox-circle-fill"><path fill="none" d="M0 0h24v24H0z"></path><path d="M12 22C6.477 22 2 17.523 2 12S6.477 2 12 2s10 4.477 10 10-4.477 10-10 10zm-.997-6l7.07-7.071-1.414-1.414-5.656 5.657-2.829-2.829-1.414 1.414L11.003 16z"></path></symbol><symbol viewBox="0 0 24 24" id="checkbox-circle-line"><path fill="none" d="M0 0h24v24H0z"></path><path d="M12 22C6.477 22 2 17.523 2 12S6.477 2 12 2s10 4.477 10 10-4.477 10-10 10zm0-2a8 8 0 100-16 8 8 0 000 16zm-.997-4L6.76 11.757l1.414-1.414 2.829 2.829 5.656-5.657 1.415 1.414L11.003 16z"></path></symbol><symbol viewBox="0 0 24 24" id="clipboard-fill"><path fill="none" d="M0 0h24v24H0z"></path><path d="M6 4v4h12V4h2.007c.548 0 .993.445.993.993v16.014a.994.994 0 01-.993.993H3.993A.994.994 0 013 21.007V4.993C3 4.445 3.445 4 3.993 4H6zm2-2h8v4H8V2z"></path></symbol><symbol viewBox="0 0 24 24" id="close-line"><path fill="none" d="M0 0h24v24H0z"></path><path d="M12 10.586l4.95-4.95 1.414 1.414-4.95 4.95 4.95 4.95-1.414 1.414-4.95-4.95-4.95 4.95-1.414-1.414 4.95-4.95-4.95-4.95L7.05 5.636z"></path></symbol><symbol viewBox="0 0 24 24" id="copy"><g fill="none" stroke="#fff" stroke-linecap="round" stroke-linejoin="round" stroke-width="2"><path d="M8 4v12a2 2 0 002 2h8a2 2 0 002-2V7.242a2 2 0 00-.602-1.43L16.083 2.57A2 2 0 0014.685 2H10a2 2 0 00-2 2z"></path><path d="M16 18v2a2 2 0 01-2 2H6a2 2 0 01-2-2V9a2 2 0 012-2h2"></path></g></symbol><symbol viewBox="0 0 24 24" id="delete-back-2-line"><path fill="none" d="M0 0h24v24H0z"></path><path d="M6.535 3H21a1 1 0 011 1v16a1 1 0 01-1 1H6.535a1 1 0 01-.832-.445l-5.333-8a1 1 0 010-1.11l5.333-8A1 1 0 016.535 3zm.535 2l-4.666 7 4.666 7H20V5H7.07zM13 10.586l2.828-2.829 1.415 1.415L14.414 12l2.829 2.828-1.415 1.415L13 13.414l-2.828 2.829-1.415-1.415L11.586 12 8.757 9.172l1.415-1.415L13 10.586z"></path></symbol><symbol viewBox="0 0 24 24" id="download-2-fill"><path fill="none" d="M0 0h24v24H0z"></path><path d="M4 19h16v-7h2v8a1 1 0 01-1 1H3a1 1 0 01-1-1v-8h2v7zM14 9h5l-7 7-7-7h5V3h4v6z"></path></symbol><symbol viewBox="0 0 24 24" id="error-warning-fill"><path fill="none" d="M0 0h24v24H0z"></path><path d="M12 22C6.477 22 2 17.523 2 12S6.477 2 12 2s10 4.477 10 10-4.477 10-10 10zm-1-7v2h2v-2h-2zm0-8v6h2V7h-2z"></path></symbol><symbol viewBox="0 0 24 24" id="error-warning-line"><path fill="none" d="M0 0h24v24H0z"></path><path d="M12 22C6.477 22 2 17.523 2 12S6.477 2 12 2s10 4.477 10 10-4.477 10-10 10zm0-2a8 8 0 100-16 8 8 0 000 16zm-1-5h2v2h-2v-2zm0-8h2v6h-2V7z"></path></symbol><symbol viewBox="0 0 24 24" id="file-copy-line"><path fill="none" d="M0 0h24v24H0z"></path><path d="M7 6V3a1 1 0 011-1h12a1 1 0 011 1v14a1 1 0 01-1 1h-3v3c0 .552-.45 1-1.007 1H4.007A1.001 1.001 0 013 21l.003-14c0-.552.45-1 1.007-1H7zM5.003 8L5 20h10V8H5.003zM9 6h8v10h2V4H9v2z"></path></symbol><symbol viewBox="0 0 24 24" id="file-list-2-fill"><path fill="none" d="M0 0h24v24H0z"></path><path d="M20 22H4a1 1 0 01-1-1V3a1 1 0 011-1h16a1 1 0 011 1v18a1 1 0 01-1 1zM8 7v2h8V7H8zm0 4v2h8v-2H8zm0 4v2h5v-2H8z"></path></symbol><symbol viewBox="0 0 24 24" id="filter-2-line"><path fill="none" d="M0 0h24v24H0z"></path><path d="M14 14v6l-4 2v-8L4 5V3h16v2l-6 9zM6.404 5L12 13.394 17.596 5H6.404z"></path></symbol><symbol viewBox="0 0 24 24" id="global-line"><path fill="none" d="M0 0h24v24H0z"></path><path d="M12 22C6.477 22 2 17.523 2 12S6.477 2 12 2s10 4.477 10 10-4.477 10-10 10zm-2.29-2.333A17.9 17.9 0 018.027 13H4.062a8.008 8.008 0 005.648 6.667zM10.03 13c.151 2.439.848 4.73 1.97 6.752A15.905 15.905 0 0013.97 13h-3.94zm9.908 0h-3.965a17.9 17.9 0 01-1.683 6.667A8.008 8.008 0 0019.938 13zM4.062 11h3.965A17.9 17.9 0 019.71 4.333 8.008 8.008 0 004.062 11zm5.969 0h3.938A15.905 15.905 0 0012 4.248 15.905 15.905 0 0010.03 11zm4.259-6.667A17.9 17.9 0 0115.973 11h3.965a8.008 8.008 0 00-5.648-6.667z"></path></symbol><symbol viewBox="0 0 24 24" id="group-2-fill"><path fill="none" d="M0 0h24v24H0z"></path><path d="M10 19.748V16.4c0-1.283.995-2.292 2.467-2.868A8.482 8.482 0 009.5 13c-1.89 0-3.636.617-5.047 1.66A8.017 8.017 0 0010 19.748zm8.88-3.662C18.485 15.553 17.17 15 15.5 15c-2.006 0-3.5.797-3.5 1.4V20a7.996 7.996 0 006.88-3.914zM9.55 11.5a2.25 2.25 0 100-4.5 2.25 2.25 0 000 4.5zm5.95 1a2 2 0 100-4 2 2 0 000 4zM12 22C6.477 22 2 17.523 2 12S6.477 2 12 2s10 4.477 10 10-4.477 10-10 10z"></path></symbol><symbol viewBox="0 0 24 24" id="hand-coin-fill"><path fill="none" d="M0 0h24v24H0z"></path><path d="M9.33 11.5h2.17A4.5 4.5 0 0116 16H8.999L9 17h8v-1a5.578 5.578 0 00-.886-3H19a5 5 0 014.516 2.851C21.151 18.972 17.322 21 13 21c-2.761 0-5.1-.59-7-1.625v-9.304A6.967 6.967 0 019.33 11.5zM5 19a1 1 0 01-1 1H2a1 1 0 01-1-1v-9a1 1 0 011-1h2a1 1 0 011 1v9zM18 5a3 3 0 110 6 3 3 0 010-6zm-7-3a3 3 0 110 6 3 3 0 010-6z"></path></symbol><symbol viewBox="0 0 24 24" id="history-line"><path fill="none" d="M0 0h24v24H0z"></path><path d="M12 2c5.523 0 10 4.477 10 10s-4.477 10-10 10S2 17.523 2 12h2a8 8 0 101.385-4.5H8v2H2v-6h2V6a9.98 9.98 0 018-4zm1 5v4.585l3.243 3.243-1.415 1.415L11 12.413V7h2z"></path></symbol><symbol viewBox="0 0 24 24" id="home-5-fill"><path fill="none" d="M0 0h24v24H0z"></path><path d="M21 20a1 1 0 01-1 1H4a1 1 0 01-1-1V9.49a1 1 0 01.386-.79l8-6.222a1 1 0 011.228 0l8 6.222a1 1 0 01.386.79V20zm-10-7v6h2v-6h-2z"></path></symbol><symbol viewBox="0 0 24 24" id="information-fill"><path fill="none" d="M0 0h24v24H0z"></path><path d="M12 22C6.477 22 2 17.523 2 12S6.477 2 12 2s10 4.477 10 10-4.477 10-10 10zm-1-11v6h2v-6h-2zm0-4v2h2V7h-2z"></path></symbol><symbol viewBox="0 0 24 24" id="information-line"><path fill="none" d="M0 0h24v24H0z"></path><path d="M12 22C6.477 22 2 17.523 2 12S6.477 2 12 2s10 4.477 10 10-4.477 10-10 10zm0-2a8 8 0 100-16 8 8 0 000 16zM11 7h2v2h-2V7zm0 4h2v6h-2v-6z"></path></symbol><symbol viewBox="0 0 24 24" id="key-2-line"><path fill="none" d="M0 0h24v24H0z"></path><path d="M10.758 11.828l7.849-7.849 1.414 1.414-1.414 1.415 2.474 2.474-1.414 1.415-2.475-2.475-1.414 1.414 2.121 2.121-1.414 1.415-2.121-2.122-2.192 2.192a5.002 5.002 0 01-7.708 6.294 5 5 0 016.294-7.708zm-.637 6.293A3 3 0 105.88 13.88a3 3 0 004.242 4.242z"></path></symbol><symbol viewBox="-2 -2.5 24 24" preserveAspectRatio="xMinYMin" class="jam jam-line" id="line-filled"><path d="M19.914 9.003a6.741 6.741 0 01-.764 2.2c-.179.324-1.056 1.558-1.325 1.884-1.478 1.788-3.953 3.851-8.092 5.857a.545.545 0 01-.78-.552l.21-1.885a.545.545 0 00-.483-.604C3.781 15.388 0 12.04 0 7.986 0 3.576 4.476 0 9.997 0c5.366 0 9.744 3.377 9.987 7.615.007.123.026.516.01.78-.011.16-.034.365-.08.608zm-15.414.6V6.24a.512.512 0 10-1.023 0v3.877c0 .284.23.514.512.514h2.045a.512.512 0 000-1.027H4.5zm3.154 1.028a.4.4 0 00.4-.401V6.128a.4.4 0 00-.4-.402h-.223a.4.4 0 00-.4.402v4.102a.4.4 0 00.4.4h.223zm4.133-4.391v2.369s-2.042-2.676-2.074-2.71a.508.508 0 00-.4-.172.527.527 0 00-.492.534v3.856a.512.512 0 101.023 0V7.763s2.073 2.698 2.104 2.727c.09.086.211.14.346.14.284.003.516-.249.516-.534V6.24a.512.512 0 10-1.023 0zm4.858 0a.512.512 0 00-.512-.514h-2.045a.512.512 0 00-.511.514v3.877c0 .284.229.514.511.514h2.045a.512.512 0 000-1.027H14.6v-.912h1.534a.512.512 0 000-1.027H14.6v-.912h1.534c.283 0 .512-.23.512-.513z"></path></symbol><symbol viewBox="0 0 24 24" id="line-line"><path fill="none" d="M0 0h24v24H0z"></path><path d="M22 10.69c0 1.787-.687 3.4-2.123 4.974-2.1 2.414-6.788 5.363-7.864 5.812-1.074.451-.911-.287-.874-.537l.137-.85c.034-.262.068-.65-.032-.9-.112-.277-.556-.424-.881-.492C5.558 18.059 2 14.7 2 10.69c0-4.475 4.487-8.118 10-8.118 5.512 0 10 3.643 10 8.118zm-3.6 3.625c1.113-1.22 1.6-2.361 1.6-3.625 0-3.268-3.51-6.118-8-6.118s-8 2.85-8 6.118c0 2.905 2.728 5.507 6.626 6.024l.147.026c1.078.226 1.884.614 2.329 1.708l.036.096c1.806-1.176 4.174-2.98 5.261-4.229zm-.262-4a.526.526 0 010 1.05h-1.463v.938h1.462a.525.525 0 110 1.049H16.15a.526.526 0 01-.522-.524V8.852c0-.287.235-.525.525-.525h1.988a.525.525 0 01-.003 1.05h-1.462v.938h1.462zm-3.213 2.513a.524.524 0 01-.526.522.515.515 0 01-.425-.208l-2.036-2.764v2.45a.525.525 0 01-1.047 0V8.852a.522.522 0 01.52-.523c.162 0 .312.086.412.211l2.052 2.775V8.852c0-.287.235-.525.525-.525.287 0 .525.238.525.525v3.976zm-4.784 0a.527.527 0 01-.526.524.526.526 0 01-.523-.524V8.852c0-.287.236-.525.525-.525.289 0 .524.238.524.525v3.976zm-2.055.524H6.097a.528.528 0 01-.525-.524V8.852a.527.527 0 011.05 0v3.45h1.464a.525.525 0 010 1.05z"></path></symbol><symbol viewBox="0 0 512 512" id="list-ol"><path fill="currentColor" d="M24 56c0-13.3 10.7-24 24-24h32c13.3 0 24 10.7 24 24v120h16c13.3 0 24 10.7 24 24s-10.7 24-24 24H40c-13.3 0-24-10.7-24-24s10.7-24 24-24h16V80h-8c-13.3 0-24-10.7-24-24zm62.7 285.2c-6.5-7.4-18.3-6.9-24 1.2l-11.2 15.5c-7.7 10.8-22.7 13.3-33.5 5.6S4.7 340.8 12.4 330l11.1-15.6c23.7-33.2 72.3-35.6 99.2-4.9 21.3 24.4 20.8 60.9-1.1 84.7L86.8 432H120c13.3 0 24 10.7 24 24s-10.7 24-24 24H32c-9.5 0-18.2-5.6-22-14.4s-2.1-18.9 4.3-25.9l72-78c5.3-5.8 5.4-14.6.3-20.5zM224 64h256c17.7 0 32 14.3 32 32s-14.3 32-32 32H224c-17.7 0-32-14.3-32-32s14.3-32 32-32zm0 160h256c17.7 0 32 14.3 32 32s-14.3 32-32 32H224c-17.7 0-32-14.3-32-32s14.3-32 32-32zm0 160h256c17.7 0 32 14.3 32 32s-14.3 32-32 32H224c-17.7 0-32-14.3-32-32s14.3-32 32-32z"></path></symbol><symbol viewBox="0 0 24 24" id="loader-line"><path fill="none" d="M0 0h24v24H0z"></path><path d="M12 2a1 1 0 011 1v3a1 1 0 01-2 0V3a1 1 0 011-1zm0 15a1 1 0 011 1v3a1 1 0 01-2 0v-3a1 1 0 011-1zm8.66-10a1 1 0 01-.366 1.366l-2.598 1.5a1 1 0 11-1-1.732l2.598-1.5A1 1 0 0120.66 7zM7.67 14.5a1 1 0 01-.366 1.366l-2.598 1.5a1 1 0 11-1-1.732l2.598-1.5a1 1 0 011.366.366zM20.66 17a1 1 0 01-1.366.366l-2.598-1.5a1 1 0 011-1.732l2.598 1.5A1 1 0 0120.66 17zM7.67 9.5a1 1 0 01-1.366.366l-2.598-1.5a1 1 0 111-1.732l2.598 1.5A1 1 0 017.67 9.5z"></path></symbol><symbol viewBox="0 0 24 24" id="logout-circle-r-line"><path fill="none" d="M0 0h24v24H0z"></path><path d="M12 22C6.477 22 2 17.523 2 12S6.477 2 12 2a9.985 9.985 0 018 4h-2.71a8 8 0 10.001 12h2.71A9.985 9.985 0 0112 22zm7-6v-3h-8v-2h8V8l5 4-5 4z"></path></symbol><symbol viewBox="0 0 60 60" id="more"><path d="M30 16c4.411 0 8-3.589 8-8s-3.589-8-8-8-8 3.589-8 8 3.589 8 8 8zM30 44c-4.411 0-8 3.589-8 8s3.589 8 8 8 8-3.589 8-8-3.589-8-8-8zM30 22c-4.411 0-8 3.589-8 8s3.589 8 8 8 8-3.589 8-8-3.589-8-8-8z"></path></symbol><symbol viewBox="0 0 24 24" id="notification-4-fill"><path fill="none" d="M0 0h24v24H0z"></path><path d="M20 18.667l.4.533a.5.5 0 01-.4.8H4a.5.5 0 01-.4-.8l.4-.533V10a8 8 0 1116 0v8.667zM9.5 21h5a2.5 2.5 0 11-5 0z"></path></symbol><symbol viewBox="0 0 24 24" id="phone-line"><path fill="none" d="M0 0h24v24H0z"></path><path d="M9.366 10.682a10.556 10.556 0 003.952 3.952l.884-1.238a1 1 0 011.294-.296 11.422 11.422 0 004.583 1.364 1 1 0 01.921.997v4.462a1 1 0 01-.898.995A15.51 15.51 0 0118.5 21C9.94 21 3 14.06 3 5.5c0-.538.027-1.072.082-1.602A1 1 0 014.077 3h4.462a1 1 0 01.997.921A11.422 11.422 0 0010.9 8.504a1 1 0 01-.296 1.294l-1.238.884zm-2.522-.657l1.9-1.357A13.41 13.41 0 017.647 5H5.01c-.006.166-.009.333-.009.5C5 12.956 11.044 19 18.5 19c.167 0 .334-.003.5-.01v-2.637a13.41 13.41 0 01-3.668-1.097l-1.357 1.9a12.442 12.442 0 01-1.588-.75l-.058-.033a12.556 12.556 0 01-4.702-4.702l-.033-.058a12.442 12.442 0 01-.75-1.588z"></path></symbol><symbol viewBox="0 0 24 24" id="play"><path fill="#fff" d="M9.5 15.584V8.416a.5.5 0 01.77-.42l5.576 3.583a.5.5 0 010 .842l-5.576 3.584a.5.5 0 01-.77-.42z"></path><path fill="#fff" d="M1 12C1 5.925 5.925 1 12 1s11 4.925 11 11-4.925 11-11 11S1 18.075 1 12zm11-9.5A9.5 9.5 0 002.5 12a9.5 9.5 0 009.5 9.5 9.5 9.5 0 009.5-9.5A9.5 9.5 0 0012 2.5z"></path></symbol><symbol viewBox="0 0 24 24" id="refresh-line"><path fill="none" d="M0 0h24v24H0z"></path><path d="M5.463 4.433A9.961 9.961 0 0112 2c5.523 0 10 4.477 10 10 0 2.136-.67 4.116-1.81 5.74L17 12h3A8 8 0 006.46 6.228l-.997-1.795zm13.074 15.134A9.961 9.961 0 0112 22C6.477 22 2 17.523 2 12c0-2.136.67-4.116 1.81-5.74L7 12H4a8 8 0 0013.54 5.772l.997 1.795z"></path></symbol><symbol viewBox="0 0 24 24" id="restart-line"><path fill="none" d="M0 0h24v24H0z"></path><path d="M18.537 19.567A9.961 9.961 0 0112 22C6.477 22 2 17.523 2 12S6.477 2 12 2s10 4.477 10 10c0 2.136-.67 4.116-1.81 5.74L17 12h3a8 8 0 10-2.46 5.772l.997 1.795z"></path></symbol><symbol viewBox="0 0 24 24" id="round-upload"><path fill="#fff" d="M10 16h4c.55 0 1-.45 1-1v-5h1.59c.89 0 1.34-1.08.71-1.71L12.71 3.7a.996.996 0 00-1.41 0L6.71 8.29c-.63.63-.19 1.71.7 1.71H9v5c0 .55.45 1 1 1zm-4 2h12c.55 0 1 .45 1 1s-.45 1-1 1H6c-.55 0-1-.45-1-1s.45-1 1-1z"></path></symbol><symbol viewBox="0 0 50 50" id="search"><path d="M21 3C11.602 3 4 10.602 4 20s7.602 17 17 17c3.355 0 6.46-.984 9.094-2.656l12.281 12.281 4.25-4.25L34.5 30.281C36.68 27.421 38 23.88 38 20c0-9.398-7.602-17-17-17zm0 4c7.2 0 13 5.8 13 13s-5.8 13-13 13S8 27.2 8 20 13.8 7 21 7z"></path></symbol><symbol viewBox="0 0 24 24" id="send-24"><path fill="#fff" d="M5.694 12L2.299 3.27c-.236-.607.356-1.188.942-.981l.093.039 18 9a.75.75 0 01.097 1.284l-.097.058-18 9c-.583.291-1.217-.245-1.065-.848l.03-.095L5.694 12 2.299 3.27 5.694 12zM4.402 4.54l2.61 6.71h6.627a.75.75 0 01.743.648l.007.102a.75.75 0 01-.649.743l-.101.007H7.01l-2.609 6.71L19.322 12 4.401 4.54z"></path></symbol><symbol viewBox="0 0 24 24" id="settings-4-line"><path fill="none" d="M0 0h24v24H0z"></path><path d="M2 12c0-.865.11-1.703.316-2.504A3 3 0 004.99 4.867a9.99 9.99 0 014.335-2.505 3 3 0 005.348 0 9.99 9.99 0 014.335 2.505 3 3 0 002.675 4.63 10.036 10.036 0 010 5.007 3 3 0 00-2.675 4.629 9.99 9.99 0 01-4.335 2.505 3 3 0 00-5.348 0 9.99 9.99 0 01-4.335-2.505 3 3 0 00-2.675-4.63A10.056 10.056 0 012 12zm4.804 3c.63 1.091.81 2.346.564 3.524.408.29.842.541 1.297.75A4.993 4.993 0 0112 18c1.26 0 2.438.471 3.335 1.274.455-.209.889-.46 1.297-.75A4.993 4.993 0 0117.196 15a4.993 4.993 0 012.77-2.25 8.126 8.126 0 000-1.5A4.993 4.993 0 0117.195 9a4.993 4.993 0 01-.564-3.524 7.989 7.989 0 00-1.297-.75A4.993 4.993 0 0112 6a4.993 4.993 0 01-3.335-1.274 7.99 7.99 0 00-1.297.75A4.993 4.993 0 016.804 9a4.993 4.993 0 01-2.77 2.25 8.126 8.126 0 000 1.5A4.993 4.993 0 016.805 15zM12 15a3 3 0 110-6 3 3 0 010 6zm0-2a1 1 0 100-2 1 1 0 000 2z"></path></symbol><symbol viewBox="0 0 24 24" id="share-line"><path fill="none" stroke="#fff" stroke-linecap="round" stroke-linejoin="round" stroke-width="2" d="M20 12l-6.4-7v3.5C10.4 8.5 4 10.6 4 19c0-1.167 1.92-3.5 9.6-3.5V19l6.4-7z"></path></symbol><symbol viewBox="0 0 24 24" id="shut-down-line"><path fill="none" d="M0 0h24v24H0z"></path><path d="M6.265 3.807l1.147 1.639a8 8 0 109.176 0l1.147-1.639A9.988 9.988 0 0122 12c0 5.523-4.477 10-10 10S2 17.523 2 12a9.988 9.988 0 014.265-8.193zM11 12V2h2v10h-2z"></path></symbol><symbol viewBox="0 0 24 24" id="smartphone-line"><path fill="none" d="M0 0h24v24H0z"></path><path d="M7 4v16h10V4H7zM6 2h12a1 1 0 011 1v18a1 1 0 01-1 1H6a1 1 0 01-1-1V3a1 1 0 011-1zm6 15a1 1 0 110 2 1 1 0 010-2z"></path></symbol><symbol viewBox="0 0 24 24" id="upload-loop"><g stroke="#fff" stroke-linecap="round" stroke-linejoin="round" stroke-width="2"><path fill="none" stroke-dasharray="14" stroke-dashoffset="14" d="M6 19h12"><animate fill="freeze" attributeName="stroke-dashoffset" dur="0.4s" values="14;0"></animate></path><path fill="#fff" d="M12 15h2V9h2.5L12 4.5M12 15h-2V9H7.5L12 4.5"><animate attributeName="d" calcMode="linear" dur="1.5s" keyTimes="0;0.7;1" repeatCount="indefinite" values="M12 15 h2 v-6 h2.5 L12 4.5M12 15 h-2 v-6 h-2.5 L12 4.5;M12 15 h2 v-3 h2.5 L12 7.5M12 15 h-2 v-3 h-2.5 L12 7.5;M12 15 h2 v-6 h2.5 L12 4.5M12 15 h-2 v-6 h-2.5 L12 4.5"></animate></path></g></symbol><symbol viewBox="0 0 24 24" id="user-3-fill"><path fill="none" d="M0 0h24v24H0z"></path><path d="M20 22H4v-2a5 5 0 015-5h6a5 5 0 015 5v2zm-8-9a6 6 0 110-12 6 6 0 010 12z"></path></symbol><symbol viewBox="0 0 24 24" id="user-add-line"><path fill="none" d="M0 0h24v24H0z"></path><path d="M14 14.252v2.09A6 6 0 006 22l-2-.001a8 8 0 0110-7.748zM12 13c-3.315 0-6-2.685-6-6s2.685-6 6-6 6 2.685 6 6-2.685 6-6 6zm0-2c2.21 0 4-1.79 4-4s-1.79-4-4-4-4 1.79-4 4 1.79 4 4 4zm6 6v-3h2v3h3v2h-3v3h-2v-3h-3v-2h3z"></path></symbol><symbol viewBox="0 0 24 24" id="user-line"><path fill="none" d="M0 0h24v24H0z"></path><path d="M4 22a8 8 0 1116 0h-2a6 6 0 10-12 0H4zm8-9c-3.315 0-6-2.685-6-6s2.685-6 6-6 6 2.685 6 6-2.685 6-6 6zm0-2c2.21 0 4-1.79 4-4s-1.79-4-4-4-4 1.79-4 4 1.79 4 4 4z"></path></symbol><symbol viewBox="0 0 24 24" id="wallet-3-fill"><path fill="none" d="M0 0h24v24H0z"></path><path d="M22 6h-7a6 6 0 100 12h7v2a1 1 0 01-1 1H3a1 1 0 01-1-1V4a1 1 0 011-1h18a1 1 0 011 1v2zm-7 2h8v8h-8a4 4 0 110-8zm0 3v2h3v-2h-3z"></path></symbol></defs></svg>