<svg id="Layer_1" data-name="Layer 1" xmlns="http://www.w3.org/2000/svg" viewBox="0 0 500 250"><defs><style>.cls-1{fill:#022e63;}.cls-2{fill:#f58b20;}.cls-3{fill:#0257fe;}.cls-4{fill:#5d94fe;}.cls-5{fill:#6498fe;}.cls-6{fill:#f8b470;}.cls-7{fill:#547092;}</style></defs><path class="cls-1" d="M408.42,250H385.11c-1-.67-2-1.76-3.12-1.95-23.1-4-42.12-15.39-58.27-32-13.19-16.7-22.52-35-24.05-56.67-.22-2.57-.45-5.16-.67-7.74,0-5.8-.11-11.6-.12-17.39Q298.7,67.16,298.53.1h3.33c2.53.59,5.06,1.65,7.61,1.69,12.95.16,25.91.05,38.86,0V63.58c2.61-1.18,3.61-1.6,4.57-2.08C413.67,31.4,483.43,66,496.32,132.6a43,43,0,0,0,2,5.78v25c-1,2.41-2.27,4.74-2.83,7.25-8.94,40-39.73,69.79-79.73,77.21A69.3,69.3,0,0,0,408.42,250Zm-10-149.8c-27.09,0-49.52,22.07-49.68,49-.17,27.53,21.88,50.13,49.2,50.44,27.12.3,50-22.3,50.18-49.53S425.8,100.24,398.4,100.2Z"/><path class="cls-2" d="M299.67,159.33c1.53,21.66,10.86,40,24.05,56.69-16.64,17.72-36.7,29-61,32.38-.9.13-1.7,1-2.54,1.6H236.92c-1.1-.64-2.14-1.66-3.31-1.86C210.34,244.16,191,233,174.89,216c-13.81-16.18-21.78-35-24.73-56q.14-79.11.26-158.22c10.19,0,20.37.16,30.55-.1,5.34-.14,10.66-1.06,16-1.62h3.33V50.44h48.48v50.18H200.29c-.18,2.26-.37,3.63-.37,5,0,15.53-.26,31.06.15,46.57.54,20.24,14,37.8,33,44.56,26.16,9.27,58.06-5.15,65.3-37.94A1,1,0,0,0,299.67,159.33Z"/><path class="cls-3" d="M150.16,160c3,21,10.92,39.77,24.73,56-16.58,17.45-36.41,28.81-60.44,32.34-.87.13-1.61,1.09-2.41,1.67h-25c-2.12-.93-4.17-2.2-6.39-2.74Q18.3,232.19,3.1,169.87a47,47,0,0,0-2.62-6.5V156.7c.55-3.13,1.58-6.27,1.59-9.4.1-45.46,0-90.92.14-136.37,0-3.16,1.06-6.32,1.62-9.49l46.52.37V50.45H99.91v49.9H51.42c0,19.44-1.54,38.37.38,56.93,2.47,23.75,21.67,40.16,45.5,42.21,21.47,1.86,42.21-12.14,50.05-33.71A56.36,56.36,0,0,1,150.16,160Z"/><path class="cls-4" d="M3.83,1.44c-.56,3.17-1.61,6.33-1.62,9.49-.11,45.45,0,90.91-.14,136.37,0,3.13-1,6.27-1.59,9.4Q.48,81.3.6,5.88c0-2-2.67-6.6,3.21-5.78C3.82.55,3.83,1,3.83,1.44Z"/><path class="cls-5" d="M3.83,1.44c0-.45,0-.89,0-1.34H50.43l-.08,1.71Z"/><path class="cls-6" d="M150.42,1.82,150.34.1H197c-5.33.56-10.65,1.48-16,1.62C170.79,2,160.61,1.81,150.42,1.82Z"/><path class="cls-7" d="M348.48.1l-.15,1.73c-12.95,0-25.91.12-38.86,0-2.55,0-5.08-1.1-7.61-1.69Z"/><path class="cls-7" d="M298.41,158.81c.2-2.4.39-4.8.59-7.2.22,2.58.45,5.17.67,7.74A1.06,1.06,0,0,1,298.41,158.81Z"/></svg>