<?xml version="1.0" encoding="utf-8"?>
<!-- Generator: Adobe Illustrator 19.2.1, SVG Export Plug-In . SVG Version: 6.00 Build 0)  -->
<svg version="1.1" id="layer" xmlns="http://www.w3.org/2000/svg" xmlns:xlink="http://www.w3.org/1999/xlink" x="0px" y="0px"
	 viewBox="0 0 652 652" style="enable-background:new 0 0 652 652;" xml:space="preserve">
<style type="text/css">
	.st0{fill:#0056FF;}
	.st1{fill:#F68B1F;}
	.st2{fill:#002D63;}
</style>
<path class="st0" d="M201.3,350.8c0,33.1-26.9,60-60,60c-33.1,0-60-26.9-60-60v-60h60v-60h-60v-60h-60v180c0,66.3,53.7,120,120,120
	c66.3,0,120-53.7,120-120H201.3z"/>
<path class="st1" d="M381.3,350.8c0,33.1-26.9,60-60,60c-33.1,0-60-26.9-60-60v-60h60v-60h-60v-60h-60v180c0,66.3,53.7,120,120,120
	s120-53.7,120-120H381.3z"/>
<path class="st2" d="M501.3,230.8c-21.9,0-42.3,5.9-60,16.1v-76.1h-60v180c0,66.3,53.7,120,120,120s120-53.7,120-120
	C621.3,284.6,567.6,230.8,501.3,230.8 M501.3,410.8c-33.1,0-60-26.9-60-60c0-33.1,26.9-60,60-60s60,26.9,60,60
	C561.3,384,534.4,410.8,501.3,410.8"/>
</svg>
